<?xml version="1.0" encoding="UTF-8" standalone="no"?>
<!DOCTYPE svg PUBLIC "-//W3C//DTD SVG 1.1//EN" "http://www.w3.org/Graphics/SVG/1.1/DTD/svg11.dtd">
<svg xmlns="http://www.w3.org/2000/svg" version="1.1" viewBox="0.00 0.00 818.00 821.00">
<path fill="#ffffff" d="
  M 799.34 800.64
  L 16.89 800.64
  A 0.66 0.66 0.0 0 1 16.23 799.98
  L 16.23 16.75
  A 0.66 0.66 0.0 0 1 16.89 16.09
  L 799.34 16.09
  A 0.66 0.66 0.0 0 1 800.00 16.75
  L 800.00 799.98
  A 0.66 0.66 0.0 0 1 799.34 800.64
  Z
  M 776.91 40.00
  A 0.56 0.56 0.0 0 0 776.35 39.44
  L 39.89 39.44
  A 0.56 0.56 0.0 0 0 39.33 40.00
  L 39.33 777.06
  A 0.56 0.56 0.0 0 0 39.89 777.62
  L 776.35 777.62
  A 0.56 0.56 0.0 0 0 776.91 777.06
  L 776.91 40.00
  Z"
/>
<path fill="#ffffff" d="
  M 257.36 154.48
  Q 280.69 154.48 282.40 154.55
  A 0.78 0.78 0.0 0 1 283.09 155.05
  L 357.88 360.75
  A 0.43 0.43 0.0 0 1 357.48 361.32
  L 315.73 361.32
  A 0.99 0.98 80.4 0 1 314.80 360.65
  L 296.89 308.79
  A 0.71 0.71 0.0 0 0 296.36 308.32
  Q 296.17 308.28 257.33 308.27
  Q 218.50 308.26 218.30 308.30
  A 0.71 0.71 0.0 0 0 217.78 308.77
  L 199.85 360.63
  A 0.99 0.98 -80.4 0 1 198.91 361.30
  L 157.16 361.28
  A 0.43 0.43 0.0 0 1 156.77 360.71
  L 231.64 155.04
  A 0.78 0.78 0.0 0 1 232.33 154.54
  Q 234.04 154.47 257.36 154.48
  Z
  M 257.44 275.75
  Q 282.24 275.76 286.43 275.75
  A 0.52 0.52 0.0 0 0 286.91 275.07
  Q 276.93 246.06 267.33 217.72
  Q 262.25 202.75 257.87 187.56
  Q 257.80 187.33 257.49 187.33
  Q 257.17 187.33 257.11 187.56
  Q 252.71 202.74 247.61 217.71
  Q 237.98 246.04 227.97 275.04
  A 0.52 0.52 0.0 0 0 228.45 275.72
  Q 232.64 275.73 257.44 275.75
  Z"
/>
<path fill="#ffffff" d="
  M 660.04 361.30
  L 612.57 361.30
  A 0.92 0.88 -15.3 0 1 611.80 360.88
  L 564.44 283.31
  A 1.13 1.12 74.2 0 0 563.48 282.77
  L 513.84 282.77
  A 0.49 0.48 -90.0 0 0 513.36 283.26
  L 513.36 360.68
  A 0.63 0.62 -0.0 0 1 512.73 361.30
  L 470.56 361.30
  A 0.42 0.41 0.0 0 1 470.14 360.89
  L 470.14 154.84
  A 0.35 0.35 0.0 0 1 470.49 154.49
  Q 540.79 154.46 574.25 154.50
  C 608.89 154.54 645.60 166.96 649.91 207.10
  C 652.41 230.41 644.83 251.69 625.48 265.18
  Q 616.43 271.49 605.87 273.89
  A 0.77 0.76 67.2 0 0 605.40 275.05
  L 660.37 360.69
  A 0.40 0.39 73.6 0 1 660.04 361.30
  Z
  M 513.15 188.85
  L 513.57 248.57
  A 0.54 0.54 0.0 0 0 514.11 249.10
  L 575.38 248.67
  A 31.59 27.87 -0.4 0 0 606.78 220.58
  L 606.74 215.52
  A 31.59 27.87 -0.4 0 0 574.96 187.88
  L 513.69 188.30
  A 0.54 0.54 0.0 0 0 513.15 188.85
  Z"
/>
<path fill="#ffffff" d="
  M 348.20 505.85
  A 0.48 0.47 71.9 0 1 347.89 506.48
  L 309.12 518.17
  A 0.71 0.71 0.0 0 1 308.27 517.79
  Q 305.28 511.16 301.22 505.80
  C 286.12 485.89 254.47 483.03 232.65 489.97
  C 210.96 496.86 199.15 515.63 195.51 537.22
  C 191.85 558.94 193.16 584.01 204.00 603.45
  C 212.86 619.34 228.47 629.05 246.66 630.80
  Q 276.65 633.69 302.55 620.84
  Q 308.55 617.86 312.72 614.29
  A 1.61 1.60 70.1 0 0 313.29 613.06
  L 313.29 585.88
  A 0.55 0.54 -0.0 0 0 312.74 585.34
  L 263.50 585.34
  A 0.67 0.67 0.0 0 1 262.83 584.67
  L 262.83 553.65
  A 0.33 0.32 90.0 0 1 263.15 553.32
  L 352.37 553.32
  A 0.52 0.52 0.0 0 1 352.89 553.84
  L 352.89 628.00
  A 2.93 2.92 -22.4 0 1 352.02 630.08
  C 333.50 648.29 308.79 658.33 282.89 662.90
  C 259.96 666.95 233.12 666.31 211.19 658.56
  C 177.42 646.62 157.66 618.97 152.22 583.83
  C 148.56 560.20 149.43 533.63 157.90 510.89
  C 168.38 482.78 191.10 463.32 220.09 456.70
  Q 253.89 448.97 287.68 455.65
  C 315.85 461.21 338.29 478.63 348.20 505.85
  Z"
/>
<path fill="#ffffff" d="
  M 582.25 453.47
  C 628.90 458.19 661.60 487.71 668.77 534.92
  C 676.10 583.14 661.62 635.33 613.39 656.15
  C 594.11 664.48 574.19 666.46 552.53 664.65
  C 518.20 661.79 489.14 644.92 473.55 613.68
  C 461.85 590.23 459.96 561.58 463.60 535.28
  C 467.94 503.95 484.73 477.43 513.46 463.43
  C 534.23 453.31 559.10 451.13 582.25 453.47
  Z
  M 505.58 559.49
  C 505.93 588.06 515.51 617.77 544.91 627.81
  Q 554.91 631.22 566.93 631.08
  Q 578.95 630.93 588.87 627.27
  C 618.01 616.51 626.85 586.57 626.50 558.00
  C 626.15 529.44 616.57 499.72 587.17 489.69
  Q 577.17 486.27 565.15 486.42
  Q 553.13 486.57 543.21 490.23
  C 514.07 500.99 505.23 530.93 505.58 559.49
  Z"
/>
</svg>
